<?xml version="1.0" encoding="UTF-8" standalone="no"?>
<!-- Created with Inkscape (http://www.inkscape.org/) -->

<svg
   width="8.3063889mm"
   height="11.215449mm"
   viewBox="0 0 8.3063889 11.215449"
   version="1.1"
   id="svg1"
   xml:space="preserve"
   inkscape:export-filename="cel.svg"
   inkscape:export-xdpi="96"
   inkscape:export-ydpi="96"
   xmlns:inkscape="http://www.inkscape.org/namespaces/inkscape"
   xmlns:sodipodi="http://sodipodi.sourceforge.net/DTD/sodipodi-0.dtd"
   xmlns="http://www.w3.org/2000/svg"
   xmlns:svg="http://www.w3.org/2000/svg"><sodipodi:namedview
     id="namedview1"
     pagecolor="#ffffff"
     bordercolor="#000000"
     borderopacity="0.25"
     inkscape:showpageshadow="2"
     inkscape:pageopacity="0.0"
     inkscape:pagecheckerboard="0"
     inkscape:deskcolor="#d1d1d1"
     inkscape:document-units="mm" /><defs
     id="defs1"><style
       id="style1-1">.cls-1{fill:none;}.cls-2{fill:#3d3d63;}</style></defs><g
     inkscape:label="Camada 1"
     inkscape:groupmode="layer"
     id="layer1"
     transform="translate(-70.385454,-121.31004)"><g
       id="g13"
       transform="matrix(0.21893473,0,0,0.2348293,69.065283,121.04703)"><path
         class="st10"
         d="m 43.97,28.36 c -2.45,-1.39 -5.26,-2.2 -8.26,-2.23 -0.07,0 -0.15,0 -0.22,0 -11.6,0 -21,9.4 -21,21 0,0.59 0.04,1.17 0.09,1.75 h 29.39 z"
         id="path1" /><g
         id="g12"><path
           class="st6"
           d="m 6.77,44.88 c 0,1.66 1.34,3 3,3 h 20.3 c 1.66,0 3,-1.34 3,-3 v -3.9 H 6.77 Z"
           id="path2" /><path
           class="st6"
           d="m 33.07,4.88 c 0,-1.66 -1.34,-3 -3,-3 H 9.77 c -1.66,0 -3,1.34 -3,3 v 3.9 h 26.3 z"
           id="path3" /><rect
           class="st2"
           height="32.200001"
           width="26.299999"
           x="6.77"
           y="8.7700005"
           id="rect3" /><path
           class="st3"
           d="m 26.85,27.09 c -0.68,3.61 -3.87,6.34 -7.68,6.34 -4.31,0 -7.81,-3.5 -7.81,-7.82 0,-3.95 2.93,-7.22 6.74,-7.74 v 9.21 h 8.75 z"
           id="path4" /><path
           class="st1"
           d="m 20.66,16.32 v 8.22 h 7.82 v -0.4 c -0.01,-4.32 -3.51,-7.82 -7.82,-7.82 z"
           id="path5" /><g
           id="g11"><path
             class="st4"
             d="m 6.78,29.35 c 0.41,0 0.75,-0.33 0.75,-0.75 0,-0.41 -0.34,-0.74 -0.75,-0.74 -0.41,0 -0.75,0.33 -0.75,0.74 0,0.42 0.33,0.75 0.75,0.75 z"
             id="path6" /><path
             class="st4"
             d="M 30.07,1.12 H 9.78 C 7.7,1.13 6.03,2.81 6.03,4.87 V 26.6 c 0,0.42 0.34,0.76 0.75,0.76 0.41,0 0.75,-0.34 0.75,-0.76 V 9.52 h 24.8 v 30.7 H 7.53 V 30.6 c 0,-0.42 -0.34,-0.75 -0.75,-0.75 -0.41,0 -0.75,0.33 -0.75,0.75 v 14.26 c 0,2.07 1.69,3.75 3.75,3.75 h 20.3 c 2.06,0 3.75,-1.68 3.75,-3.75 v -40 C 33.82,2.81 32.14,1.13 30.07,1.12 Z M 7.53,8.02 V 4.87 c 0,-1.24 1.01,-2.25 2.25,-2.25 h 20.3 c 1.24,0 2.25,1.01 2.25,2.25 v 3.15 z m 22.54,39.1 H 9.78 c -1.24,0 -2.25,-1.01 -2.25,-2.25 v -3.14 h 24.8 v 3.14 c -0.01,1.24 -1.01,2.25 -2.26,2.25 z"
             id="path7" /><path
             class="st4"
             d="m 23.76,4.41 h -7.67 c -0.41,0 -0.75,0.34 -0.75,0.75 0,0.41 0.34,0.75 0.75,0.75 h 7.67 c 0.41,0 0.75,-0.34 0.75,-0.75 0,-0.41 -0.34,-0.75 -0.75,-0.75 z"
             id="path8" /><path
             class="st4"
             d="m 19.92,42.14 c -1.22,0 -2.21,0.99 -2.21,2.21 0,1.22 0.99,2.21 2.21,2.21 1.22,0 2.21,-0.99 2.21,-2.21 0,-1.22 -0.99,-2.21 -2.21,-2.21 z m 0,2.92 c -0.39,0 -0.71,-0.32 -0.71,-0.71 0,-0.39 0.32,-0.71 0.71,-0.71 0.39,0 0.71,0.32 0.71,0.71 0,0.39 -0.31,0.71 -0.71,0.71 z"
             id="path9" /><path
             class="st4"
             d="m 18.6,17.31 c -0.16,-0.14 -0.38,-0.21 -0.59,-0.18 -4.21,0.57 -7.39,4.22 -7.39,8.48 0,4.73 3.84,8.57 8.56,8.57 4.12,0 7.66,-2.92 8.42,-6.95 0.04,-0.22 -0.02,-0.45 -0.16,-0.62 -0.14,-0.17 -0.35,-0.27 -0.58,-0.27 h -8 v -8.46 c 0,-0.22 -0.09,-0.42 -0.26,-0.57 z m 7.29,10.53 c -0.94,2.85 -3.63,4.84 -6.71,4.84 -3.89,0 -7.06,-3.17 -7.06,-7.07 0,-3.22 2.2,-6.02 5.24,-6.82 v 8.3 c 0,0.41 0.34,0.75 0.75,0.75 z"
             id="path10" /><path
             class="st4"
             d="m 28.48,25.29 c 0.41,0 0.75,-0.34 0.75,-0.75 v -0.4 c 0,-4.72 -3.84,-8.57 -8.57,-8.57 -0.41,0 -0.75,0.34 -0.75,0.75 v 8.22 c 0,0.41 0.34,0.75 0.75,0.75 z m -7.06,-8.18 c 3.43,0.36 6.14,3.19 6.31,6.68 h -6.31 z"
             id="path11" /></g></g></g></g><style
     type="text/css"
     id="style1"><![CDATA[
	.st0{fill-rule:evenodd;clip-rule:evenodd;}
]]></style><style
     type="text/css"
     id="style1-9">&#10;	.st0{fill:#F0C4DB;}&#10;	.st1{fill:#FF9D9C;}&#10;	.st2{fill:#9BEAF9;}&#10;	.st3{fill:#E9F4BC;}&#10;	.st4{fill:#505050;}&#10;	.st5{fill:#FEBECC;}&#10;	.st6{fill:#FFFFFF;}&#10;	.st7{fill:#FDE4A1;}&#10;	.st8{fill:#FEE7B5;}&#10;	.st9{fill:#CDF6FC;}&#10;	.st10{fill:#F2C6DD;}&#10;	.st11{opacity:0.1;}&#10;</style></svg>
