<?xml version="1.0" encoding="UTF-8" standalone="no"?>
<!-- Created with Inkscape (http://www.inkscape.org/) -->

<svg
   width="7.089849mm"
   height="7.0393314mm"
   viewBox="0 0 7.089849 7.0393314"
   version="1.1"
   id="svg1"
   xml:space="preserve"
   xmlns:inkscape="http://www.inkscape.org/namespaces/inkscape"
   xmlns:sodipodi="http://sodipodi.sourceforge.net/DTD/sodipodi-0.dtd"
   xmlns="http://www.w3.org/2000/svg"
   xmlns:svg="http://www.w3.org/2000/svg"><sodipodi:namedview
     id="namedview1"
     pagecolor="#ffffff"
     bordercolor="#000000"
     borderopacity="0.25"
     inkscape:showpageshadow="2"
     inkscape:pageopacity="0.0"
     inkscape:pagecheckerboard="0"
     inkscape:deskcolor="#d1d1d1"
     inkscape:document-units="mm" /><defs
     id="defs1" /><g
     inkscape:label="Camada 1"
     inkscape:groupmode="layer"
     id="layer1"
     transform="translate(-66.552919,-143.1152)"><path
       class="st0"
       d="m 70.097892,143.1152 c -1.957647,0 -3.544972,1.61536 -3.544972,3.60942 0,1.59493 1.016014,2.9463 2.424507,3.424 0.177249,0.033 0.242135,-0.0786 0.242135,-0.17442 0,-0.0864 -0.0032,-0.3127 -0.0048,-0.6144 -0.985945,0.21841 -1.194845,-0.48399 -1.194845,-0.48399 -0.161423,-0.41641 -0.394061,-0.52798 -0.394061,-0.52798 -0.321264,-0.2247 0.02374,-0.21999 0.02374,-0.21999 0.356079,0.0251 0.542823,0.37242 0.542823,0.37242 0.316516,0.55155 0.829271,0.39284 1.03184,0.30013 0.03165,-0.23257 0.123442,-0.39284 0.224727,-0.48241 -0.786541,-0.0911 -1.614229,-0.4007 -1.614229,-1.7835 0,-0.39441 0.137684,-0.71654 0.363993,-0.96796 -0.0364,-0.0911 -0.158258,-0.45883 0.03482,-0.95538 0,0 0.297525,-0.0974 0.974868,0.36927 0.283281,-0.0802 0.585553,-0.11943 0.887826,-0.121 0.300689,0.001 0.604543,0.0409 0.887825,0.121 0.677342,-0.4667 0.973284,-0.36927 0.973284,-0.36927 0.193075,0.49655 0.07122,0.86424 0.03482,0.95538 0.226309,0.25299 0.363992,0.57512 0.363992,0.96796 0,1.38595 -0.82927,1.69079 -1.618975,1.78036 0.126606,0.11156 0.240551,0.33155 0.240551,0.66783 0,0.4824 -0.0048,0.8721 -0.0048,0.98996 0,0.0958 0.06331,0.20899 0.243717,0.17285 1.411659,-0.47613 2.426091,-1.8275 2.426091,-3.42086 0,-1.99406 -1.587325,-3.60942 -3.544973,-3.60942 z"
       id="path1"
       style="stroke-width:0.0157696" /></g><style
     type="text/css"
     id="style1"><![CDATA[
	.st0{fill-rule:evenodd;clip-rule:evenodd;}
]]></style></svg>
